<svg width="23" height="23" viewBox="0 0 23 23" fill="none" xmlns="http://www.w3.org/2000/svg">
<path d="M11.8799 22.2012C10.3831 22.2012 8.97233 21.9147 7.64746 21.3418C6.32975 20.7689 5.16602 19.9775 4.15625 18.9678C3.14648 17.958 2.35514 16.7943 1.78223 15.4766C1.20931 14.1517 0.922852 12.7409 0.922852 11.2441C0.922852 9.7474 1.20931 8.34017 1.78223 7.02246C2.35514 5.69759 3.1429 4.53027 4.14551 3.52051C5.15527 2.51074 6.31901 1.7194 7.63672 1.14648C8.96159 0.573568 10.3724 0.287109 11.8691 0.287109C13.3659 0.287109 14.7767 0.573568 16.1016 1.14648C17.4264 1.7194 18.5938 2.51074 19.6035 3.52051C20.6133 4.53027 21.4046 5.69759 21.9775 7.02246C22.5505 8.34017 22.8369 9.7474 22.8369 11.2441C22.8369 12.7409 22.5505 14.1517 21.9775 15.4766C21.4046 16.7943 20.6133 17.958 19.6035 18.9678C18.5938 19.9775 17.4264 20.7689 16.1016 21.3418C14.7839 21.9147 13.3766 22.2012 11.8799 22.2012ZM11.8799 20.375C13.1475 20.375 14.3327 20.1387 15.4355 19.666C16.5384 19.1934 17.5088 18.5417 18.3467 17.7109C19.1846 16.873 19.8363 15.9027 20.3018 14.7998C20.7744 13.6969 21.0107 12.5117 21.0107 11.2441C21.0107 9.97656 20.7744 8.79134 20.3018 7.68848C19.8291 6.58561 19.1738 5.61523 18.3359 4.77734C17.5052 3.93945 16.5348 3.28776 15.4248 2.82227C14.3219 2.34961 13.1367 2.11328 11.8691 2.11328C10.6016 2.11328 9.41634 2.34961 8.31348 2.82227C7.21061 3.28776 6.24382 3.93945 5.41309 4.77734C4.58236 5.61523 3.93066 6.58561 3.45801 7.68848C2.99251 8.79134 2.75977 9.97656 2.75977 11.2441C2.75977 12.5117 2.99251 13.6969 3.45801 14.7998C3.93066 15.9027 4.58236 16.873 5.41309 17.7109C6.25098 18.5417 7.22135 19.1934 8.32422 19.666C9.42708 20.1387 10.6123 20.375 11.8799 20.375ZM6.89551 11.2441C6.89551 10.972 6.97786 10.7536 7.14258 10.5889C7.31445 10.417 7.54004 10.3311 7.81934 10.3311H10.9775V7.17285C10.9775 6.90072 11.0599 6.67871 11.2246 6.50684C11.3893 6.33496 11.6006 6.24902 11.8584 6.24902C12.1305 6.24902 12.349 6.33496 12.5137 6.50684C12.6855 6.67155 12.7715 6.89355 12.7715 7.17285V10.3311H15.9404C16.2126 10.3311 16.431 10.417 16.5957 10.5889C16.7676 10.7536 16.8535 10.972 16.8535 11.2441C16.8535 11.502 16.7676 11.7132 16.5957 11.8779C16.431 12.0426 16.2126 12.125 15.9404 12.125H12.7715V15.2939C12.7715 15.5661 12.6855 15.7881 12.5137 15.96C12.349 16.1247 12.1305 16.207 11.8584 16.207C11.6006 16.207 11.3893 16.1247 11.2246 15.96C11.0599 15.7881 10.9775 15.5661 10.9775 15.2939V12.125H7.81934C7.5472 12.125 7.3252 12.0426 7.15332 11.8779C6.98145 11.7132 6.89551 11.502 6.89551 11.2441Z" fill="black"/>
</svg>
