<svg width="22" height="25" viewBox="0 0 22 25" fill="none" xmlns="http://www.w3.org/2000/svg">
<path d="M5.19727 14.2422L0.878906 6.13184C0.778646 5.9528 0.732096 5.7666 0.739258 5.57324C0.746419 5.37988 0.803711 5.20085 0.911133 5.03613L3.83301 0.578125C4.04069 0.277344 4.34505 0.126953 4.74609 0.126953H17.1641C17.5651 0.126953 17.8695 0.277344 18.0771 0.578125L20.9883 5.03613C21.0957 5.20085 21.153 5.37988 21.1602 5.57324C21.1673 5.7666 21.1208 5.9528 21.0205 6.13184L16.7021 14.2422L15.5527 13.0498L19.3877 5.54102L17.6475 2.8877L13.1143 11.8252L11.3525 11.5352L16.6055 1.74902H5.29395L10.5469 11.5352L8.78516 11.8252L4.25195 2.8877L2.52246 5.54102L6.34668 13.0498L5.19727 14.2422ZM6.96973 6.67969V5.05762H14.9404V6.67969H6.96973ZM10.9551 24.5762C9.98112 24.5762 9.06803 24.3936 8.21582 24.0283C7.36361 23.6702 6.61523 23.1654 5.9707 22.5137C5.32617 21.8691 4.82129 21.1208 4.45605 20.2686C4.09082 19.4163 3.9082 18.5068 3.9082 17.54C3.9082 16.5661 4.09082 15.653 4.45605 14.8008C4.82129 13.9486 5.32617 13.2002 5.9707 12.5557C6.61523 11.9111 7.36361 11.4062 8.21582 11.041C9.06803 10.6758 9.98112 10.4932 10.9551 10.4932C11.929 10.4932 12.8385 10.6758 13.6836 11.041C14.5358 11.4062 15.2842 11.9111 15.9287 12.5557C16.5804 13.2002 17.0853 13.9486 17.4434 14.8008C17.8086 15.653 17.9912 16.5661 17.9912 17.54C17.9912 18.5068 17.8086 19.4163 17.4434 20.2686C17.0853 21.1208 16.5804 21.8691 15.9287 22.5137C15.2842 23.1654 14.5358 23.6702 13.6836 24.0283C12.8385 24.3936 11.929 24.5762 10.9551 24.5762ZM10.9551 22.9541C11.9505 22.9541 12.8564 22.7106 13.6729 22.2236C14.4964 21.7367 15.1517 21.0814 15.6387 20.2578C16.1257 19.4414 16.3691 18.5355 16.3691 17.54C16.3691 16.5374 16.1257 15.6279 15.6387 14.8115C15.1517 13.988 14.4964 13.3327 13.6729 12.8457C12.8564 12.3587 11.9505 12.1152 10.9551 12.1152C9.95247 12.1152 9.03939 12.3587 8.21582 12.8457C7.39941 13.3327 6.74772 13.988 6.26074 14.8115C5.77376 15.6279 5.53027 16.5374 5.53027 17.54C5.53027 18.5355 5.77376 19.4414 6.26074 20.2578C6.74772 21.0814 7.39941 21.7367 8.21582 22.2236C9.03939 22.7106 9.95247 22.9541 10.9551 22.9541ZM9.06445 20.9346C8.86393 21.0778 8.6849 21.0921 8.52734 20.9775C8.37695 20.863 8.33757 20.6947 8.40918 20.4727L9.17188 18.2275L7.24902 16.8633C7.06283 16.7344 6.99479 16.5732 7.04492 16.3799C7.09505 16.1865 7.24186 16.0898 7.48535 16.0898L9.83789 16.1113L10.5576 13.8555C10.6292 13.6335 10.7617 13.5225 10.9551 13.5225C11.1484 13.5225 11.2809 13.6335 11.3525 13.8555L12.0723 16.1113L14.4248 16.0898C14.6755 16.0898 14.8223 16.1865 14.8652 16.3799C14.9154 16.5732 14.8509 16.7308 14.6719 16.8525L12.749 18.2275L13.5117 20.4727C13.5833 20.6947 13.5404 20.863 13.3828 20.9775C13.2253 21.0921 13.0462 21.0778 12.8457 20.9346L10.9658 19.5488L9.06445 20.9346Z" fill="black"/>
</svg>
