<svg width="27" height="23" viewBox="0 0 27 23" fill="none" xmlns="http://www.w3.org/2000/svg">
<path d="M10.4609 21.5146V13.6943C10.4609 13.4508 10.5361 13.2539 10.6865 13.1035C10.8369 12.9531 11.0374 12.8779 11.2881 12.8779H15.8428C16.0863 12.8779 16.2832 12.9531 16.4336 13.1035C16.584 13.2539 16.6592 13.4508 16.6592 13.6943V21.5146H10.4609ZM6.26074 22.6211C5.49447 22.6211 4.89648 22.4134 4.4668 21.998C4.04427 21.5827 3.83301 20.999 3.83301 20.2471V8.37695L5.5625 7.20605V19.8066C5.5625 20.1576 5.65202 20.4261 5.83105 20.6123C6.01725 20.7985 6.28223 20.8916 6.62598 20.8916H20.4297C20.7734 20.8916 21.0348 20.7985 21.2139 20.6123C21.3929 20.4261 21.4824 20.1576 21.4824 19.8066V7.19531L23.2119 8.37695V20.2471C23.2119 20.999 23.0007 21.5827 22.5781 21.998C22.1556 22.4134 21.5612 22.6211 20.7949 22.6211H6.26074ZM0.739258 10.665C0.739258 10.3857 0.853841 10.153 1.08301 9.9668L12.2764 0.567383C12.6774 0.230794 13.1071 0.0625 13.5654 0.0625C14.0309 0.0625 14.4642 0.230794 14.8652 0.567383L26.0479 9.9668C26.2699 10.153 26.3809 10.3965 26.3809 10.6973C26.3809 10.9551 26.2913 11.1592 26.1123 11.3096C25.9333 11.4528 25.7184 11.5244 25.4678 11.5244C25.3174 11.5244 25.1777 11.4886 25.0488 11.417C24.9271 11.3454 24.8125 11.2666 24.7051 11.1807L13.9521 2.15723C13.8304 2.0498 13.7015 1.99609 13.5654 1.99609C13.4365 1.99609 13.3112 2.0498 13.1895 2.15723L2.43652 11.1807C2.32194 11.2666 2.2002 11.3454 2.07129 11.417C1.94954 11.4886 1.81348 11.5244 1.66309 11.5244C1.37663 11.5244 1.15104 11.4385 0.986328 11.2666C0.821615 11.0876 0.739258 10.887 0.739258 10.665ZM20.5156 5.82031V3.13477C20.5156 2.89844 20.5872 2.71224 20.7305 2.57617C20.8737 2.43294 21.0599 2.36133 21.2891 2.36133H22.4385C22.6748 2.36133 22.861 2.43294 22.9971 2.57617C23.1403 2.71224 23.2119 2.89844 23.2119 3.13477V8.09766L20.5156 5.82031Z" fill="black"/>
</svg>
