<svg width="25" height="23" viewBox="0 0 25 23" fill="none" xmlns="http://www.w3.org/2000/svg">
<path d="M13.7275 4.83105C14.0068 4.83105 14.2467 4.93132 14.4473 5.13184C14.6478 5.3252 14.748 5.56152 14.748 5.84082V13.5859L13.5557 9.91211L17.2832 14.9717C17.4766 15.2295 17.5589 15.498 17.5303 15.7773C17.5088 16.0566 17.3799 16.2786 17.1436 16.4434C16.8857 16.6224 16.6172 16.6868 16.3379 16.6367C16.0658 16.5866 15.8223 16.4219 15.6074 16.1426L13.0078 12.7051C12.8145 12.4544 12.7178 12.1966 12.7178 11.9316V5.84082C12.7178 5.56152 12.8145 5.3252 13.0078 5.13184C13.2083 4.93132 13.4482 4.83105 13.7275 4.83105ZM13.9639 22.2012C12.7607 22.2012 11.6113 22.0078 10.5156 21.6211C9.41992 21.2415 8.41374 20.7044 7.49707 20.0098C6.5804 19.3223 5.7819 18.5238 5.10156 17.6143C4.91536 17.3779 4.84375 17.1309 4.88672 16.873C4.93685 16.6152 5.06934 16.4183 5.28418 16.2822C5.51335 16.1462 5.74251 16.1104 5.97168 16.1748C6.20801 16.2321 6.40853 16.3717 6.57324 16.5938C7.11751 17.3529 7.76921 18.0153 8.52832 18.5811C9.2946 19.1468 10.1361 19.5837 11.0527 19.8916C11.9694 20.2067 12.9398 20.3678 13.9639 20.375C15.2314 20.3822 16.4167 20.1494 17.5195 19.6768C18.6224 19.2041 19.5892 18.5524 20.4199 17.7217C21.2578 16.8838 21.9131 15.9134 22.3857 14.8105C22.8584 13.7005 23.0947 12.5117 23.0947 11.2441C23.0947 9.97656 22.8584 8.79134 22.3857 7.68848C21.9131 6.58561 21.2578 5.61882 20.4199 4.78809C19.5892 3.9502 18.6224 3.2985 17.5195 2.83301C16.4167 2.36035 15.2314 2.12402 13.9639 2.12402C12.6963 2.12402 11.5111 2.36035 10.4082 2.83301C9.30534 3.2985 8.33496 3.94661 7.49707 4.77734C6.65918 5.60807 6.00391 6.57487 5.53125 7.67773C5.06576 8.7806 4.83301 9.96582 4.83301 11.2334H3.00684C3.00684 9.73665 3.29329 8.32943 3.86621 7.01172C4.43913 5.68685 5.23047 4.52311 6.24023 3.52051C7.25 2.51074 8.41374 1.7194 9.73145 1.14648C11.0563 0.573568 12.4671 0.287109 13.9639 0.287109C15.4606 0.287109 16.8678 0.573568 18.1855 1.14648C19.5104 1.7194 20.6777 2.51074 21.6875 3.52051C22.6973 4.53027 23.4886 5.69759 24.0615 7.02246C24.6344 8.34017 24.9209 9.7474 24.9209 11.2441C24.9209 12.7409 24.6344 14.1517 24.0615 15.4766C23.4886 16.7943 22.6973 17.958 21.6875 18.9678C20.6777 19.9775 19.5104 20.7689 18.1855 21.3418C16.8678 21.9147 15.4606 22.2012 13.9639 22.2012ZM1.68555 9.1709H6.61621C6.86686 9.1709 7.05664 9.22461 7.18555 9.33203C7.31445 9.43229 7.37533 9.56836 7.36816 9.74023C7.36816 9.90495 7.30013 10.0876 7.16406 10.2881L4.75781 13.7148C4.58594 13.9583 4.38542 14.0837 4.15625 14.0908C3.92708 14.0908 3.72298 13.9655 3.54395 13.7148L1.1377 10.2988C1.00163 10.0983 0.930013 9.91211 0.922852 9.74023C0.91569 9.56836 0.976562 9.43229 1.10547 9.33203C1.23438 9.22461 1.42773 9.1709 1.68555 9.1709Z" fill="black"/>
</svg>
